<?xml version="1.0" encoding="UTF-8" standalone="no"?>
<svg
   xmlns:dc="http://purl.org/dc/elements/1.1/"
   xmlns:cc="http://creativecommons.org/ns#"
   xmlns:rdf="http://www.w3.org/1999/02/22-rdf-syntax-ns#"
   xmlns:svg="http://www.w3.org/2000/svg"
   xmlns="http://www.w3.org/2000/svg"
   xmlns:sodipodi="http://sodipodi.sourceforge.net/DTD/sodipodi-0.dtd"
   xmlns:inkscape="http://www.inkscape.org/namespaces/inkscape"
   viewBox="0 0 47.61 47.61"
   version="1.1"
   id="svg4541"
   sodipodi:docname="github.svg"
   inkscape:version="0.92.1 unknown">
  <metadata
     id="metadata4545">
    <rdf:RDF>
      <cc:Work
         rdf:about="">
        <dc:format>image/svg+xml</dc:format>
        <dc:type
           rdf:resource="http://purl.org/dc/dcmitype/StillImage" />
      </cc:Work>
    </rdf:RDF>
  </metadata>
  <sodipodi:namedview
     pagecolor="#ffffff"
     bordercolor="#666666"
     borderopacity="1"
     objecttolerance="10"
     gridtolerance="10"
     guidetolerance="10"
     inkscape:pageopacity="0"
     inkscape:pageshadow="2"
     inkscape:window-width="1536"
     inkscape:window-height="758"
     id="namedview4543"
     showgrid="false"
     inkscape:zoom="12.287334"
     inkscape:cx="23.805"
     inkscape:cy="23.805"
     inkscape:window-x="0"
     inkscape:window-y="31"
     inkscape:window-maximized="1"
     inkscape:current-layer="Github_Logo" />
  <defs
     id="defs4532">
    <style
       id="style4530">.cls-1{fill:#676767;}</style>
  </defs>
  <title
     id="title4534">github</title>
  <g
     id="Layer_2">
    <g
       id="Layer_1-2">
      <g
         id="Github_Logo">
        <path
           class="cls-1"
           d="M23.81,0a23.8,23.8,0,1,0,23.8,23.8A23.81,23.81,0,0,0,23.81,0Zm6.67,41.94c-.14-1.86-.29-4.17-.3-5.1a4.52,4.52,0,0,0-1.87-3.7c6.88-.58,10.15-4.38,10.38-9.4a9.39,9.39,0,0,0-3-7.4,40.68,40.68,0,0,0-.2-5.87C34,10,30.36,11.92,29.35,12.73a19.23,19.23,0,0,0-10.51,0c-2.25-1.58-4.81-2.55-6.2-2.28a7.42,7.42,0,0,0-.21,5.87c-1.66,1.51-4,3.38-3.34,7.28,1,5.73,5,8.81,11.52,9.57a2.1,2.1,0,0,0-1.73,1.76c-4.36,1.8-5.6-1.11-6.15-1.87-1.83-2.26-3.47-1.61-3.57-1.57a.29.29,0,0,0-.16.25c.09.49,1.09,1,1.14,1,1.35,1,1.85,2.82,2.16,3.34C14.22,39.29,18.72,38,18.76,38c0,.28,0,2.62-.06,4.44a19.35,19.35,0,1,1,11.77-.5Z"
           id="path4536"
           style="fill:#0366d6;fill-opacity:1" />
      </g>
    </g>
  </g>
</svg>
