<?xml version="1.0" encoding="UTF-8" standalone="no"?>
<svg
   xmlns:dc="http://purl.org/dc/elements/1.1/"
   xmlns:cc="http://creativecommons.org/ns#"
   xmlns:rdf="http://www.w3.org/1999/02/22-rdf-syntax-ns#"
   xmlns:svg="http://www.w3.org/2000/svg"
   xmlns="http://www.w3.org/2000/svg"
   xmlns:sodipodi="http://sodipodi.sourceforge.net/DTD/sodipodi-0.dtd"
   xmlns:inkscape="http://www.inkscape.org/namespaces/inkscape"
   enable-background="new 0 0 512 512"
   id="Layer_1"
   version="1.1"
   viewBox="0 0 512 512"
   xml:space="preserve"
   sodipodi:docname="amazon.svg"
   inkscape:version="0.92.1 unknown"><metadata
     id="metadata3746"><rdf:RDF><cc:Work
         rdf:about=""><dc:format>image/svg+xml</dc:format><dc:type
           rdf:resource="http://purl.org/dc/dcmitype/StillImage" /></cc:Work></rdf:RDF></metadata><defs
     id="defs3744" /><sodipodi:namedview
     pagecolor="#ffffff"
     bordercolor="#666666"
     borderopacity="1"
     objecttolerance="10"
     gridtolerance="10"
     guidetolerance="10"
     inkscape:pageopacity="0"
     inkscape:pageshadow="2"
     inkscape:window-width="1536"
     inkscape:window-height="758"
     id="namedview3742"
     showgrid="false"
     inkscape:zoom="1.1425781"
     inkscape:cx="118.15385"
     inkscape:cy="217.67416"
     inkscape:window-x="0"
     inkscape:window-y="31"
     inkscape:window-maximized="1"
     inkscape:current-layer="g3739" /><g
     id="g3739"><g
       id="g4556"><path
         style="fill:#f8a51b;fill-opacity:1"
         id="path3733"
         fill="#A7A7A7"
         d="M379,196.2c0,18.5,0.3,37-0.1,55.5c-0.4,19.2,5.2,36,17.8,50.5c1.4,1.6,2.8,3.4,3.9,5.2   c3.3,5.4,2.6,8.9-2.2,13c-12.9,11.1-25.7,22.2-38.5,33.3c-6.6,5.8-11.9,6-18.6,0.3c-8.9-7.6-16.6-16.3-23.2-26   c-4.8-7.1-4.7-7-10.9-0.9c-12.2,12-25.3,23.1-42.1,27.7c-27.4,7.4-55,9.4-81.3-3.8c-22.2-11.1-34.7-29.8-38.8-54.2   c-3.1-18.2-2.4-36.2,3.6-53.7c8.8-25.6,26.8-43,51.1-53.8c22.4-9.9,46.2-14.6,70.5-16.6c9.9-0.8,19.8-2,29.8-2.9   c1.9-0.2,3.1-0.5,3.1-2.8c0.1-11.8-0.3-23.6-2.9-35.2c-3.1-13.6-12.7-19.9-25.7-22.4c-17.3-3.4-37.8,4.6-46.7,18.4   c-2.4,3.8-4,7.9-5.1,12.4c-2.4,10-5.6,12-15.8,10.8c-14.9-1.7-29.7-3.4-44.6-5.2c-7.8-0.9-10.5-4.3-9.3-11.5   c5.6-33.6,24.4-56.8,55.4-70.4c21.9-9.6,44.8-13.5,68.6-12.8c25.3,0.8,49.7,5.2,70.7,20.6c14.9,10.9,24.5,25.2,28.6,43.5   c2.9,13.1,2.7,26.1,2.8,39.2C379.1,168.5,379,182.3,379,196.2z M303,231.2c0-4.7-0.2-9.3,0.1-14c0.2-3.3-0.9-4.3-4.2-4.3   c-9.5,0-19,0.6-28.3,2.1c-15.5,2.5-29.9,8.2-39.1,21.6c-11.3,16.4-12.3,34.5-4.6,52.7c5.1,12,18,19,30.4,17.5   c14.2-1.7,24.8-9,32.4-20.8C300.3,269.3,303.8,250.8,303,231.2z" /><path
         style="fill:#f8a51b;fill-opacity:1"
         id="path3735"
         fill="#A7A7A7"
         d="M259.5,451.2c-48.8,0-89.8-7-129.6-21.6c-45.1-16.5-85.2-41.2-120.8-73.3c-2.3-2.1-4.4-4.3-2.2-7.7   c2.6-3.9,5.5-1.9,8.2-0.3c25.1,14.9,51.4,27.4,78.8,37.4c27.9,10.2,56.4,17.5,85.7,22.4c33.8,5.6,67.8,7.2,102,5.8   c28.6-1.2,56.9-5.3,84.7-12c26.5-6.4,52.6-14.3,77.6-25.5c2.2-1,4.6-2.3,7.1-1.9c3.3,0.5,6,2.3,6.9,5.7c0.8,3.2-0.2,5.8-2.9,7.9   c-7.6,5.7-15.5,10.9-23.7,15.7c-37,21.7-77,35.1-119.2,42.4C292.5,449.5,272.9,451.4,259.5,451.2z" /><path
         style="fill:#f8a51b;fill-opacity:1"
         id="path3737"
         fill="#A7A7A7"
         d="M454.4,354.9c-15.1,0.1-27.1,1.7-39.1,3.5c-2.3,0.3-4.6,0.6-5.7-1.7c-1-2,0.8-3.8,2.2-5.1   c6-5.6,13.4-8.9,21-11.1c11.8-3.4,24-5.4,36.4-5.5c8.4-0.1,16.6,1.3,24.7,3.2c8,1.9,10.3,4.9,10.1,13c-0.7,27.3-9.9,51.3-28.4,71.6   c-1.7,1.8-3.7,3.4-5.7,4.8c-1.6,1.2-3.5,2-5.4,0.3c-1.8-1.6-1.4-3.4-0.6-5.4c3.7-9.6,7.6-19.2,10.9-28.9c2.9-8.5,5.7-17,5.5-26.2   c-0.1-6.5-1.5-8.6-7.9-10.3C465.5,355,458.5,354.7,454.4,354.9z" /></g></g></svg>